<svg xmlns="http://www.w3.org/2000/svg" viewBox="0 0 1920 1080" preserveAspectRatio="xMidYMid slice">
<defs>
 <radialGradient id="bg" cx="72%" cy="45%" r="72%"><stop offset="0" stop-color="#33205f"/><stop offset=".32" stop-color="#10152e"/><stop offset="1" stop-color="#020309"/></radialGradient>
 <radialGradient id="planet" cx="45%" cy="42%"><stop offset="0" stop-color="#8cecff" stop-opacity=".9"/><stop offset=".25" stop-color="#5b68ff" stop-opacity=".42"/><stop offset=".62" stop-color="#8b38ff" stop-opacity=".15"/><stop offset="1" stop-color="#020309" stop-opacity="0"/></radialGradient>
 <linearGradient id="ring" x1="0" x2="1"><stop stop-color="#62efff" stop-opacity="0"/><stop offset=".5" stop-color="#9d78ff" stop-opacity=".8"/><stop offset="1" stop-color="#62efff" stop-opacity="0"/></linearGradient>
 <filter id="blur"><feGaussianBlur stdDeviation="24"/></filter>
 <filter id="glow"><feGaussianBlur stdDeviation="7"/></filter>
</defs>
<rect width="1920" height="1080" fill="url(#bg)"/>
<g opacity=".28" filter="url(#blur)"><circle cx="1440" cy="470" r="260" fill="#704bff"/><circle cx="420" cy="850" r="220" fill="#00d9ff"/></g>
<g transform="translate(1440 525)">
 <circle r="350" fill="url(#planet)"/>
 <circle r="170" fill="#10182f" stroke="#75eaff" stroke-opacity=".22"/>
 <ellipse rx="470" ry="125" fill="none" stroke="url(#ring)" stroke-width="5" transform="rotate(-17)"/>
 <ellipse rx="520" ry="165" fill="none" stroke="#7b5cff" stroke-opacity=".25" stroke-width="2" transform="rotate(18)"/>
 <circle r="135" fill="none" stroke="#70efff" stroke-opacity=".22"/>
 <circle r="4" r="4" fill="#fff" filter="url(#glow)"/>
</g>
<g fill="#9df6ff">
 <circle cx="0" cy="40" r="2" opacity="0.15"/><circle cx="137" cy="123" r="1" opacity="0.22142857142857142"/><circle cx="274" cy="206" r="1" opacity="0.2928571428571428"/><circle cx="411" cy="289" r="1" opacity="0.36428571428571427"/><circle cx="548" cy="372" r="1" opacity="0.4357142857142857"/><circle cx="685" cy="455" r="2" opacity="0.5071428571428571"/><circle cx="822" cy="538" r="1" opacity="0.5785714285714285"/><circle cx="959" cy="621" r="1" opacity="0.15"/><circle cx="1096" cy="704" r="1" opacity="0.22142857142857142"/><circle cx="1233" cy="787" r="1" opacity="0.2928571428571428"/><circle cx="1370" cy="870" r="2" opacity="0.36428571428571427"/><circle cx="1507" cy="53" r="1" opacity="0.4357142857142857"/><circle cx="1644" cy="136" r="1" opacity="0.5071428571428571"/><circle cx="1781" cy="219" r="1" opacity="0.5785714285714285"/><circle cx="1918" cy="302" r="1" opacity="0.15"/><circle cx="135" cy="385" r="2" opacity="0.22142857142857142"/><circle cx="272" cy="468" r="1" opacity="0.2928571428571428"/><circle cx="409" cy="551" r="1" opacity="0.36428571428571427"/><circle cx="546" cy="634" r="1" opacity="0.4357142857142857"/><circle cx="683" cy="717" r="1" opacity="0.5071428571428571"/><circle cx="820" cy="800" r="2" opacity="0.5785714285714285"/><circle cx="957" cy="883" r="1" opacity="0.15"/><circle cx="1094" cy="66" r="1" opacity="0.22142857142857142"/><circle cx="1231" cy="149" r="1" opacity="0.2928571428571428"/><circle cx="1368" cy="232" r="1" opacity="0.36428571428571427"/><circle cx="1505" cy="315" r="2" opacity="0.4357142857142857"/><circle cx="1642" cy="398" r="1" opacity="0.5071428571428571"/><circle cx="1779" cy="481" r="1" opacity="0.5785714285714285"/><circle cx="1916" cy="564" r="1" opacity="0.15"/><circle cx="133" cy="647" r="1" opacity="0.22142857142857142"/><circle cx="270" cy="730" r="2" opacity="0.2928571428571428"/><circle cx="407" cy="813" r="1" opacity="0.36428571428571427"/><circle cx="544" cy="896" r="1" opacity="0.4357142857142857"/><circle cx="681" cy="79" r="1" opacity="0.5071428571428571"/><circle cx="818" cy="162" r="1" opacity="0.5785714285714285"/><circle cx="955" cy="245" r="2" opacity="0.15"/><circle cx="1092" cy="328" r="1" opacity="0.22142857142857142"/><circle cx="1229" cy="411" r="1" opacity="0.2928571428571428"/><circle cx="1366" cy="494" r="1" opacity="0.36428571428571427"/><circle cx="1503" cy="577" r="1" opacity="0.4357142857142857"/><circle cx="1640" cy="660" r="2" opacity="0.5071428571428571"/><circle cx="1777" cy="743" r="1" opacity="0.5785714285714285"/><circle cx="1914" cy="826" r="1" opacity="0.15"/><circle cx="131" cy="909" r="1" opacity="0.22142857142857142"/><circle cx="268" cy="92" r="1" opacity="0.2928571428571428"/><circle cx="405" cy="175" r="2" opacity="0.36428571428571427"/><circle cx="542" cy="258" r="1" opacity="0.4357142857142857"/><circle cx="679" cy="341" r="1" opacity="0.5071428571428571"/><circle cx="816" cy="424" r="1" opacity="0.5785714285714285"/><circle cx="953" cy="507" r="1" opacity="0.15"/><circle cx="1090" cy="590" r="2" opacity="0.22142857142857142"/><circle cx="1227" cy="673" r="1" opacity="0.2928571428571428"/><circle cx="1364" cy="756" r="1" opacity="0.36428571428571427"/><circle cx="1501" cy="839" r="1" opacity="0.4357142857142857"/><circle cx="1638" cy="922" r="1" opacity="0.5071428571428571"/><circle cx="1775" cy="105" r="2" opacity="0.5785714285714285"/><circle cx="1912" cy="188" r="1" opacity="0.15"/><circle cx="129" cy="271" r="1" opacity="0.22142857142857142"/><circle cx="266" cy="354" r="1" opacity="0.2928571428571428"/><circle cx="403" cy="437" r="1" opacity="0.36428571428571427"/><circle cx="540" cy="520" r="2" opacity="0.4357142857142857"/><circle cx="677" cy="603" r="1" opacity="0.5071428571428571"/><circle cx="814" cy="686" r="1" opacity="0.5785714285714285"/><circle cx="951" cy="769" r="1" opacity="0.15"/><circle cx="1088" cy="852" r="1" opacity="0.22142857142857142"/><circle cx="1225" cy="935" r="2" opacity="0.2928571428571428"/><circle cx="1362" cy="118" r="1" opacity="0.36428571428571427"/><circle cx="1499" cy="201" r="1" opacity="0.4357142857142857"/><circle cx="1636" cy="284" r="1" opacity="0.5071428571428571"/><circle cx="1773" cy="367" r="1" opacity="0.5785714285714285"/><circle cx="1910" cy="450" r="2" opacity="0.15"/><circle cx="127" cy="533" r="1" opacity="0.22142857142857142"/><circle cx="264" cy="616" r="1" opacity="0.2928571428571428"/><circle cx="401" cy="699" r="1" opacity="0.36428571428571427"/><circle cx="538" cy="782" r="1" opacity="0.4357142857142857"/><circle cx="675" cy="865" r="2" opacity="0.5071428571428571"/><circle cx="812" cy="48" r="1" opacity="0.5785714285714285"/><circle cx="949" cy="131" r="1" opacity="0.15"/><circle cx="1086" cy="214" r="1" opacity="0.22142857142857142"/><circle cx="1223" cy="297" r="1" opacity="0.2928571428571428"/><circle cx="1360" cy="380" r="2" opacity="0.36428571428571427"/><circle cx="1497" cy="463" r="1" opacity="0.4357142857142857"/><circle cx="1634" cy="546" r="1" opacity="0.5071428571428571"/><circle cx="1771" cy="629" r="1" opacity="0.5785714285714285"/><circle cx="1908" cy="712" r="1" opacity="0.15"/><circle cx="125" cy="795" r="2" opacity="0.22142857142857142"/><circle cx="262" cy="878" r="1" opacity="0.2928571428571428"/><circle cx="399" cy="61" r="1" opacity="0.36428571428571427"/><circle cx="536" cy="144" r="1" opacity="0.4357142857142857"/><circle cx="673" cy="227" r="1" opacity="0.5071428571428571"/>
</g>
<path d="M0 900 C340 760 600 1020 960 850 S1560 760 1920 900" fill="none" stroke="#67e9ff" stroke-opacity=".13" stroke-width="2"/>
<path d="M0 930 C360 800 620 1060 1010 900 S1600 800 1920 940" fill="none" stroke="#8765ff" stroke-opacity=".11" stroke-width="1"/>
</svg>